<svg id="pill" xmlns="http://www.w3.org/2000/svg" width="55.797" height="55.797" viewBox="0 0 55.797 55.797">
  <g id="Group_148" data-name="Group 148" transform="translate(0.473 0.473)">
    <path id="Path_63" data-name="Path 63" d="M197.73,17.452a14.236,14.236,0,0,1-4.161,10.025l-13.24,13.24L160.28,20.667l13.24-13.24a14.177,14.177,0,0,1,24.21,10.025" transform="translate(-142.879 -3.266)" fill="#ff7474"/>
    <path id="Path_64" data-name="Path 64" d="M40.717,180.329,27.571,193.475a13.987,13.987,0,0,1-10.119,4.256A14.177,14.177,0,0,1,7.427,173.52l13.24-13.24,20.049,20.049Z" transform="translate(-3.266 -142.879)" fill="#80d6fa"/>
  </g>
  <path id="Path_65" data-name="Path 65" d="M14.659,55.8A14.732,14.732,0,0,1,0,41.139v-.473c0-3.594,0-5.3,4.256-9.836C8.606,26.291,17.4,17.685,17.5,17.59a.457.457,0,0,1,.662,0L37.923,37.356,50.785,24.494A13.709,13.709,0,0,0,41.139,1.04,13.9,13.9,0,0,0,31.4,5.012L20.806,15.6a.468.468,0,1,1-.662-.662L30.736,4.256A14.581,14.581,0,0,1,41.139,0,14.732,14.732,0,0,1,55.8,14.659a14.91,14.91,0,0,1-4.256,10.4h0c-.095.189-.284.284-.567.567L38.3,38.3c-.095.095-.189.095-.378.095h0c-.095,0-.284-.095-.378-.095L17.78,18.536c-1.7,1.608-9.079,8.89-12.862,12.956C.851,35.748.851,37.261.851,40.666v.473A13.723,13.723,0,0,0,14.564,54.852,13.158,13.158,0,0,0,24.3,50.691L34.9,40.193a.468.468,0,1,1,.662.662l-10.5,10.5A14.375,14.375,0,0,1,14.659,55.8ZM6.62,44.543a.52.52,0,0,1-.473-.284,8.331,8.331,0,0,1-.567-3.121,11.208,11.208,0,0,1,.473-3.026.421.421,0,0,1,.567-.284c.189.095.378.378.284.567a8.686,8.686,0,0,0-.473,2.648A8.787,8.787,0,0,0,6.9,43.787a.4.4,0,0,1-.284.567C6.809,44.543,6.715,44.543,6.62,44.543ZM49.65,15.131a.447.447,0,0,1-.473-.473,8.078,8.078,0,0,0-3.5-6.62.473.473,0,1,1,.567-.757,8.938,8.938,0,0,1,3.877,7.377A.447.447,0,0,1,49.65,15.131Z" transform="translate(0 0)" fill="#51565f"/>
</svg>
